PathFileType	4	(X/Y/Z)	E:/New_biomech_experiments/27_06_2024_Shreyas_Arm26_updated ground/Afternoon session/Neeraj_PP_27_6_24_elbow_flexion_t01.trc	
DataRate	CameraRate	NumFrames	NumMarkers	Units	OrigDataRate	OrigDataStartFrame	OrigNumFrames	
120.00	120.00	98	4	m	120.00	5709	6524	
Frame#	Time	MarkerSet_r_acromion			MarkerSet_r_humerus_epicondyle			MarkerSet_r_radius_styloid			MarkerSet_RHAND			
		X1	Y1	Z1	X2	Y2	Z2	X3	Y3	Z3	X4	Y4	Z4	

5709	47.567	-0.01138	0.77641	0.23374	-0.02073	0.43168	0.25526	0.09172	0.17143	0.28309	0.13335	0.08862	0.24678 
5710	47.575	-0.01143	0.77641	0.23375	-0.02065	0.43171	0.25521	0.09122	0.17122	0.28313	0.13268	0.08830	0.24685 
5711	47.583	-0.01148	0.77641	0.23375	-0.02058	0.43173	0.25517	0.09070	0.17100	0.28317	0.13201	0.08798	0.24694 
5712	47.592	-0.01155	0.77643	0.23375	-0.02050	0.43176	0.25513	0.09017	0.17078	0.28323	0.13136	0.08767	0.24703 
5713	47.600	-0.01161	0.77645	0.23375	-0.02042	0.43178	0.25510	0.08963	0.17056	0.28329	0.13071	0.08736	0.24715 
5714	47.608	-0.01168	0.77647	0.23375	-0.02035	0.43181	0.25507	0.08909	0.17034	0.28335	0.13006	0.08705	0.24726 
5715	47.617	-0.01174	0.77648	0.23376	-0.02028	0.43183	0.25504	0.08855	0.17012	0.28342	0.12940	0.08674	0.24738 
5716	47.625	-0.01179	0.77648	0.23377	-0.02021	0.43186	0.25502	0.08800	0.16990	0.28350	0.12872	0.08643	0.24750 
5717	47.633	-0.01185	0.77647	0.23378	-0.02015	0.43189	0.25500	0.08745	0.16968	0.28358	0.12802	0.08611	0.24761 
5718	47.642	-0.01189	0.77647	0.23379	-0.02010	0.43192	0.25497	0.08689	0.16947	0.28367	0.12728	0.08578	0.24773 
5719	47.650	-0.01195	0.77647	0.23380	-0.02005	0.43195	0.25496	0.08633	0.16926	0.28375	0.12648	0.08544	0.24783 
5720	47.658	-0.01200	0.77648	0.23381	-0.02000	0.43199	0.25494	0.08576	0.16905	0.28383	0.12564	0.08509	0.24792 
5721	47.667	-0.01205	0.77649	0.23381	-0.01996	0.43203	0.25492	0.08519	0.16884	0.28390	0.12484	0.08476	0.24800 
5722	47.675	-0.01210	0.77649	0.23382	-0.01993	0.43207	0.25491	0.08462	0.16864	0.28398	0.12402	0.08443	0.24810 
5723	47.683	-0.01214	0.77650	0.23382	-0.01989	0.43211	0.25490	0.08405	0.16845	0.28405	0.12309	0.08405	0.24822 
5724	47.692	-0.01219	0.77650	0.23383	-0.01986	0.43216	0.25489	0.08348	0.16826	0.28412	0.12212	0.08367	0.24835 
5725	47.700	-0.01223	0.77651	0.23384	-0.01983	0.43220	0.25488	0.08291	0.16808	0.28419	0.12120	0.08330	0.24847 
5726	47.708	-0.01227	0.77651	0.23385	-0.01981	0.43225	0.25487	0.08235	0.16790	0.28426	0.12032	0.08296	0.24858 
5727	47.717	-0.01231	0.77651	0.23386	-0.01979	0.43229	0.25486	0.08179	0.16772	0.28434	0.11946	0.08263	0.24869 
5728	47.725	-0.01236	0.77652	0.23386	-0.01976	0.43233	0.25484	0.08123	0.16755	0.28441	0.11862	0.08231	0.24880 
5729	47.733	-0.01241	0.77655	0.23387	-0.01974	0.43237	0.25483	0.08067	0.16739	0.28449	0.11780	0.08201	0.24890 
5730	47.742	-0.01247	0.77657	0.23387	-0.01971	0.43241	0.25482	0.08011	0.16722	0.28457	0.11700	0.08173	0.24901 
5731	47.750	-0.01251	0.77658	0.23388	-0.01968	0.43245	0.25480	0.07956	0.16706	0.28465	0.11621	0.08145	0.24911 
5732	47.758	-0.01255	0.77658	0.23388	-0.01965	0.43249	0.25479	0.07900	0.16689	0.28473	0.11544	0.08119	0.24923 
5733	47.767	-0.01259	0.77657	0.23389	-0.01963	0.43253	0.25477	0.07846	0.16674	0.28480	0.11469	0.08093	0.24934 
5734	47.775	-0.01264	0.77657	0.23389	-0.01961	0.43257	0.25476	0.07792	0.16658	0.28488	0.11394	0.08068	0.24945 
5735	47.783	-0.01268	0.77658	0.23389	-0.01960	0.43261	0.25475	0.07739	0.16643	0.28496	0.11321	0.08043	0.24956 
5736	47.792	-0.01273	0.77658	0.23390	-0.01959	0.43265	0.25474	0.07687	0.16629	0.28503	0.11249	0.08019	0.24968 
5737	47.800	-0.01278	0.77659	0.23390	-0.01960	0.43268	0.25474	0.07636	0.16614	0.28510	0.11179	0.07995	0.24979 
5738	47.808	-0.01283	0.77660	0.23390	-0.01962	0.43271	0.25473	0.07586	0.16601	0.28517	0.11111	0.07971	0.24990 
5739	47.817	-0.01288	0.77660	0.23391	-0.01964	0.43274	0.25473	0.07537	0.16587	0.28524	0.11045	0.07948	0.25001 
5740	47.825	-0.01294	0.77661	0.23391	-0.01966	0.43277	0.25473	0.07489	0.16574	0.28532	0.10981	0.07927	0.25012 
5741	47.833	-0.01300	0.77662	0.23391	-0.01968	0.43280	0.25473	0.07443	0.16561	0.28539	0.10919	0.07905	0.25023 
5742	47.842	-0.01307	0.77662	0.23391	-0.01971	0.43283	0.25472	0.07397	0.16549	0.28546	0.10858	0.07885	0.25033 
5743	47.850	-0.01315	0.77663	0.23391	-0.01974	0.43286	0.25472	0.07352	0.16537	0.28553	0.10798	0.07864	0.25043 
5744	47.858	-0.01323	0.77664	0.23391	-0.01977	0.43288	0.25472	0.07309	0.16526	0.28560	0.10739	0.07845	0.25054 
5745	47.867	-0.01331	0.77665	0.23392	-0.01980	0.43291	0.25472	0.07266	0.16515	0.28568	0.10682	0.07827	0.25064 
5746	47.875	-0.01339	0.77666	0.23392	-0.01983	0.43294	0.25472	0.07225	0.16505	0.28575	0.10626	0.07810	0.25075 
5747	47.883	-0.01348	0.77667	0.23392	-0.01985	0.43296	0.25472	0.07184	0.16496	0.28582	0.10572	0.07795	0.25085 
5748	47.892	-0.01358	0.77669	0.23392	-0.01987	0.43299	0.25473	0.07143	0.16487	0.28590	0.10517	0.07781	0.25095 
5749	47.900	-0.01367	0.77670	0.23393	-0.01988	0.43303	0.25473	0.07102	0.16478	0.28597	0.10463	0.07766	0.25105 
5750	47.908	-0.01377	0.77672	0.23393	-0.01989	0.43306	0.25473	0.07062	0.16469	0.28604	0.10408	0.07752	0.25115 
5751	47.917	-0.01387	0.77673	0.23393	-0.01989	0.43309	0.25472	0.07021	0.16460	0.28611	0.10352	0.07737	0.25125 
5752	47.925	-0.01397	0.77675	0.23394	-0.01989	0.43313	0.25472	0.06981	0.16451	0.28619	0.10297	0.07721	0.25135 
5753	47.933	-0.01406	0.77677	0.23394	-0.01990	0.43316	0.25472	0.06940	0.16443	0.28626	0.10242	0.07706	0.25145 
5754	47.942	-0.01416	0.77678	0.23394	-0.01991	0.43319	0.25471	0.06899	0.16434	0.28633	0.10188	0.07691	0.25155 
5755	47.950	-0.01424	0.77680	0.23395	-0.01994	0.43323	0.25471	0.06858	0.16426	0.28640	0.10135	0.07675	0.25165 
5756	47.958	-0.01432	0.77681	0.23395	-0.01998	0.43326	0.25471	0.06817	0.16417	0.28646	0.10082	0.07660	0.25174 
5757	47.967	-0.01440	0.77682	0.23395	-0.02003	0.43329	0.25471	0.06777	0.16410	0.28652	0.10030	0.07645	0.25182 
5758	47.975	-0.01448	0.77684	0.23396	-0.02008	0.43332	0.25471	0.06738	0.16402	0.28658	0.09977	0.07629	0.25190 
5759	47.983	-0.01456	0.77685	0.23396	-0.02013	0.43335	0.25471	0.06699	0.16395	0.28663	0.09925	0.07614	0.25197 
5760	47.992	-0.01464	0.77686	0.23396	-0.02019	0.43338	0.25470	0.06661	0.16387	0.28669	0.09874	0.07599	0.25204 
5761	48.000	-0.01472	0.77688	0.23397	-0.02026	0.43341	0.25470	0.06623	0.16380	0.28673	0.09824	0.07584	0.25211 
5762	48.008	-0.01479	0.77689	0.23398	-0.02033	0.43344	0.25470	0.06586	0.16372	0.28678	0.09775	0.07571	0.25218 
5763	48.017	-0.01487	0.77690	0.23398	-0.02041	0.43346	0.25469	0.06550	0.16365	0.28682	0.09728	0.07559	0.25225 
5764	48.025	-0.01494	0.77691	0.23399	-0.02049	0.43349	0.25468	0.06514	0.16357	0.28685	0.09682	0.07547	0.25231 
5765	48.033	-0.01502	0.77692	0.23400	-0.02057	0.43352	0.25466	0.06478	0.16350	0.28688	0.09638	0.07536	0.25238 
5766	48.042	-0.01509	0.77693	0.23400	-0.02065	0.43354	0.25464	0.06443	0.16343	0.28691	0.09594	0.07526	0.25243 
5767	48.050	-0.01517	0.77695	0.23401	-0.02073	0.43357	0.25462	0.06409	0.16336	0.28692	0.09552	0.07516	0.25247 
5768	48.058	-0.01524	0.77696	0.23402	-0.02080	0.43359	0.25460	0.06376	0.16329	0.28693	0.09511	0.07506	0.25250 
5769	48.067	-0.01533	0.77697	0.23403	-0.02086	0.43361	0.25457	0.06344	0.16322	0.28692	0.09469	0.07495	0.25251 
5770	48.075	-0.01541	0.77698	0.23404	-0.02091	0.43364	0.25455	0.06313	0.16315	0.28692	0.09428	0.07485	0.25251 
5771	48.083	-0.01550	0.77699	0.23405	-0.02096	0.43366	0.25452	0.06282	0.16308	0.28690	0.09387	0.07474	0.25249 
5772	48.092	-0.01558	0.77701	0.23407	-0.02099	0.43368	0.25448	0.06252	0.16301	0.28687	0.09347	0.07463	0.25247 
5773	48.100	-0.01567	0.77702	0.23408	-0.02102	0.43370	0.25445	0.06223	0.16295	0.28685	0.09307	0.07453	0.25243 
5774	48.108	-0.01575	0.77704	0.23409	-0.02104	0.43372	0.25441	0.06194	0.16288	0.28681	0.09268	0.07443	0.25238 
5775	48.117	-0.01583	0.77706	0.23411	-0.02105	0.43375	0.25438	0.06166	0.16281	0.28677	0.09231	0.07433	0.25232 
5776	48.125	-0.01591	0.77709	0.23412	-0.02106	0.43377	0.25434	0.06139	0.16275	0.28673	0.09194	0.07423	0.25226 
5777	48.133	-0.01598	0.77711	0.23414	-0.02107	0.43379	0.25430	0.06114	0.16269	0.28668	0.09159	0.07413	0.25220 
5778	48.142	-0.01606	0.77714	0.23416	-0.02108	0.43381	0.25426	0.06089	0.16263	0.28663	0.09125	0.07404	0.25213 
5779	48.150	-0.01613	0.77716	0.23418	-0.02108	0.43384	0.25422	0.06066	0.16258	0.28657	0.09093	0.07396	0.25205 
5780	48.158	-0.01619	0.77720	0.23420	-0.02109	0.43386	0.25418	0.06044	0.16252	0.28650	0.09063	0.07388	0.25197 
5781	48.167	-0.01626	0.77723	0.23422	-0.02109	0.43389	0.25414	0.06023	0.16247	0.28643	0.09034	0.07380	0.25188 
5782	48.175	-0.01632	0.77728	0.23424	-0.02109	0.43392	0.25410	0.06004	0.16243	0.28635	0.09006	0.07373	0.25178 
5783	48.183	-0.01638	0.77733	0.23426	-0.02108	0.43395	0.25406	0.05985	0.16239	0.28626	0.08978	0.07366	0.25166 
5784	48.192	-0.01644	0.77739	0.23428	-0.02107	0.43399	0.25402	0.05966	0.16236	0.28617	0.08951	0.07359	0.25154 
5785	48.200	-0.01650	0.77746	0.23430	-0.02106	0.43403	0.25398	0.05948	0.16233	0.28608	0.08924	0.07352	0.25141 
5786	48.208	-0.01656	0.77754	0.23432	-0.02104	0.43408	0.25393	0.05931	0.16231	0.28598	0.08897	0.07346	0.25127 
5787	48.217	-0.01663	0.77763	0.23433	-0.02102	0.43414	0.25389	0.05914	0.16229	0.28587	0.08871	0.07340	0.25113 
5788	48.225	-0.01669	0.77774	0.23434	-0.02099	0.43419	0.25384	0.05896	0.16227	0.28576	0.08845	0.07336	0.25099 
5789	48.233	-0.01677	0.77786	0.23435	-0.02096	0.43425	0.25380	0.05879	0.16226	0.28565	0.08819	0.07331	0.25084 
5790	48.242	-0.01685	0.77799	0.23435	-0.02092	0.43431	0.25376	0.05862	0.16224	0.28554	0.08793	0.07326	0.25069 
5791	48.250	-0.01694	0.77814	0.23434	-0.02088	0.43437	0.25371	0.05846	0.16221	0.28543	0.08766	0.07321	0.25053 
5792	48.258	-0.01701	0.77828	0.23434	-0.02085	0.43443	0.25367	0.05829	0.16219	0.28532	0.08739	0.07316	0.25037 
5793	48.267	-0.01708	0.77839	0.23435	-0.02081	0.43448	0.25363	0.05812	0.16216	0.28521	0.08712	0.07310	0.25023 
5794	48.275	-0.01712	0.77848	0.23436	-0.02078	0.43453	0.25359	0.05794	0.16213	0.28511	0.08685	0.07304	0.25008 
5795	48.283	-0.01716	0.77856	0.23438	-0.02076	0.43458	0.25356	0.05776	0.16209	0.28500	0.08659	0.07299	0.24995 
5796	48.292	-0.01720	0.77863	0.23441	-0.02074	0.43463	0.25352	0.05757	0.16206	0.28490	0.08633	0.07294	0.24983 
5797	48.300	-0.01723	0.77869	0.23444	-0.02073	0.43468	0.25349	0.05738	0.16202	0.28480	0.08607	0.07290	0.24972 
5798	48.308	-0.01725	0.77875	0.23447	-0.02072	0.43473	0.25345	0.05719	0.16199	0.28471	0.08582	0.07286	0.24961 
5799	48.317	-0.01727	0.77880	0.23450	-0.02072	0.43479	0.25342	0.05699	0.16196	0.28462	0.08556	0.07281	0.24951 
5800	48.325	-0.01729	0.77885	0.23454	-0.02073	0.43484	0.25339	0.05680	0.16193	0.28453	0.08530	0.07278	0.24941 
5801	48.333	-0.01733	0.77893	0.23456	-0.02075	0.43490	0.25336	0.05661	0.16191	0.28445	0.08505	0.07274	0.24932 
5802	48.342	-0.01738	0.77902	0.23459	-0.02078	0.43496	0.25333	0.05642	0.16189	0.28437	0.08479	0.07271	0.24924 
5803	48.350	-0.01742	0.77910	0.23462	-0.02081	0.43502	0.25331	0.05624	0.16188	0.28429	0.08454	0.07267	0.24916 
5804	48.358	-0.01746	0.77917	0.23466	-0.02084	0.43508	0.25328	0.05606	0.16187	0.28422	0.08429	0.07265	0.24908 
5805	48.367	-0.01750	0.77924	0.23470	-0.02087	0.43515	0.25326	0.05589	0.16186	0.28415	0.08404	0.07262	0.24900 
5806	48.375	-0.01753	0.77929	0.23475	-0.02091	0.43521	0.25325	0.05572	0.16185	0.28409	0.08379	0.07260	0.24892 
